<svg width="27" height="27" viewBox="0 0 27 27" fill="none" xmlns="http://www.w3.org/2000/svg">
<path d="M18.285 5.13725H3.32454C1.49604 5.13725 0 6.6394 0 8.47536V18.4897C0 20.3256 1.49604 21.8278 3.32454 21.8278H15.4591L20.2797 26.668C20.4459 26.8349 20.6121 26.8349 20.9446 26.8349C21.1108 26.8349 21.1108 26.8349 21.277 26.8349C21.6095 26.668 21.7757 26.3342 21.7757 26.0004V8.47536C21.6095 6.6394 20.1135 5.13725 18.285 5.13725Z" fill="#B78DEB"/>
<path d="M23.2718 0.130127C21.4433 0.130127 8.31138 0.130127 8.31138 0.130127C6.48289 0.130127 4.98684 1.63227 4.98684 3.46823H18.285C21.1109 3.46823 23.2718 5.638 23.2718 8.47539V19.658L25.1003 21.494C25.2665 21.6609 25.4328 21.6609 25.7652 21.6609C25.9314 21.6609 25.9314 21.6609 26.0977 21.6609C26.4301 21.494 26.5963 21.1602 26.5963 20.8264C26.5963 20.8264 26.5963 5.30419 26.5963 3.46823C26.5963 1.63227 25.1003 0.130127 23.2718 0.130127Z" fill="#B78DEB"/>
</svg>
